# xmcd CD database file
#
# Track frame offsets:
#	150
#	14710
#	29721
#	43111
#	57083
#	70454
#	84195
#	98218
#	112588
#	126806
#	139461
#	152185
#	166844
#	182391
#	196609
#	210279
#	225153
#	239369
#	252237
#	267795
#	279307
#	292681
#	306730
#	322834
#	339221
#
# Disc length: 4726 seconds
#
# Revision: 0
# Processed by: cddbd v1.5.2PL0 Copyright (c) Steve Scherf et al.
# Submitted via: CDex 1.51
#
DISCID=4e127419
DTITLE=Charlie Parker - A Proper Introduction To
DYEAR=2005
DGENRE=Jazz
TTITLE0=Billie's Bounce
TTITLE1=How's The Time
TTITLE2=Ko-Ko
TTITLE3=Moose The Moochie
TTITLE4=Yardbird Suite
TTITLE5=Ornithology
TTITLE6=A Night In Tunisia
TTITLE7=Cool Blues
TTITLE8=Relaxin' At Camarillo
TTITLE9=Carvin' The Bird
TTITLE10=Chasin' The Bird
TTITLE11=Bird Of Paradise
TTITLE12=Embraceable You
TTITLE13=Klactoveedsedstene
TTITLE14=Scrapple From The Apple
TTITLE15=My Old Flame
TTITLE16=Out Of Nowhere
TTITLE17=Don't Blame Me
TTITLE18=How Deep Is The Ocean
TTITLE19=Barbados
TTITLE20=Ah-Leu-Cha
TTITLE21=Parker's Mood
TTITLE22=Just Friends
TTITLE23=Star Eyes
TTITLE24=Loverman
EXTD=YEAR: 2005
EXTT0=
EXTT1=
EXTT2=
EXTT3=
EXTT4=
EXTT5=
EXTT6=
EXTT7=
EXTT8=
EXTT9=
EXTT10=
EXTT11=
EXTT12=
EXTT13=
EXTT14=
EXTT15=
EXTT16=
EXTT17=
EXTT18=
EXTT19=
EXTT20=
EXTT21=
EXTT22=
EXTT23=
EXTT24=
PLAYORDER=
